<?xml version="1.0" encoding="utf-8" standalone="no"?>
<!DOCTYPE svg PUBLIC "-//W3C//DTD SVG 1.1//EN"
  "http://www.w3.org/Graphics/SVG/1.1/DTD/svg11.dtd">
<svg xmlns:xlink="http://www.w3.org/1999/xlink" width="460.8pt" height="345.6pt" viewBox="0 0 460.8 345.6" xmlns="http://www.w3.org/2000/svg" version="1.1">
 <metadata>
  <rdf:RDF xmlns:dc="http://purl.org/dc/elements/1.1/" xmlns:cc="http://creativecommons.org/ns#" xmlns:rdf="http://www.w3.org/1999/02/22-rdf-syntax-ns#">
   <cc:Work>
    <dc:type rdf:resource="http://purl.org/dc/dcmitype/StillImage"/>
    <dc:date>2023-04-13T12:07:34.977208</dc:date>
    <dc:format>image/svg+xml</dc:format>
    <dc:creator>
     <cc:Agent>
      <dc:title>Matplotlib v3.7.0, https://matplotlib.org/</dc:title>
     </cc:Agent>
    </dc:creator>
   </cc:Work>
  </rdf:RDF>
 </metadata>
 <defs>
  <style type="text/css">*{stroke-linejoin: round; stroke-linecap: butt}</style>
 </defs>
 <g id="figure_1">
  <g id="patch_1">
   <path d="M 0 345.6 
L 460.8 345.6 
L 460.8 0 
L 0 0 
z
" style="fill: #ffffff"/>
  </g>
  <g id="axes_1">
   <g id="patch_2">
    <path d="M 31.21 123.9 
L 460.8 123.9 
L 460.8 16.08 
L 31.21 16.08 
z
" style="fill: #ffffff"/>
   </g>
   <g id="patch_3">
    <path d="M 53.17767 123.9 
L 72.704489 123.9 
L 72.704489 39.253668 
L 53.17767 39.253668 
z
" clip-path="url(#p79ffed5b3b)" style="fill: #1f77b4"/>
   </g>
   <g id="patch_4">
    <path d="M 77.586193 123.9 
L 97.113011 123.9 
L 97.113011 31.482857 
L 77.586193 31.482857 
z
" clip-path="url(#p79ffed5b3b)" style="fill: #1f77b4"/>
   </g>
   <g id="patch_5">
    <path d="M 101.994716 123.9 
L 121.521534 123.9 
L 121.521534 35.645792 
L 101.994716 35.645792 
z
" clip-path="url(#p79ffed5b3b)" style="fill: #1f77b4"/>
   </g>
   <g id="patch_6">
    <path d="M 126.403239 123.9 
L 145.930057 123.9 
L 145.930057 43.416602 
L 126.403239 43.416602 
z
" clip-path="url(#p79ffed5b3b)" style="fill: #1f77b4"/>
   </g>
   <g id="patch_7">
    <path d="M 150.811761 123.9 
L 170.33858 123.9 
L 170.33858 39.531197 
L 150.811761 39.531197 
z
" clip-path="url(#p79ffed5b3b)" style="fill: #1f77b4"/>
   </g>
   <g id="patch_8">
    <path d="M 175.220284 123.9 
L 194.747102 123.9 
L 194.747102 38.976139 
L 175.220284 38.976139 
z
" clip-path="url(#p79ffed5b3b)" style="fill: #1f77b4"/>
   </g>
   <g id="patch_9">
    <path d="M 199.628807 123.9 
L 219.155625 123.9 
L 219.155625 33.703089 
L 199.628807 33.703089 
z
" clip-path="url(#p79ffed5b3b)" style="fill: #1f77b4"/>
   </g>
   <g id="patch_10">
    <path d="M 224.03733 123.9 
L 243.564148 123.9 
L 243.564148 43.694131 
L 224.03733 43.694131 
z
" clip-path="url(#p79ffed5b3b)" style="fill: #1f77b4"/>
   </g>
   <g id="patch_11">
    <path d="M 248.445852 123.9 
L 267.97267 123.9 
L 267.97267 45.081776 
L 248.445852 45.081776 
z
" clip-path="url(#p79ffed5b3b)" style="fill: #1f77b4"/>
   </g>
   <g id="patch_12">
    <path d="M 272.854375 123.9 
L 292.381193 123.9 
L 292.381193 39.531197 
L 272.854375 39.531197 
z
" clip-path="url(#p79ffed5b3b)" style="fill: #1f77b4"/>
   </g>
   <g id="patch_13">
    <path d="M 297.262898 123.9 
L 316.789716 123.9 
L 316.789716 28.707568 
L 297.262898 28.707568 
z
" clip-path="url(#p79ffed5b3b)" style="fill: #1f77b4"/>
   </g>
   <g id="patch_14">
    <path d="M 321.67142 123.9 
L 341.198239 123.9 
L 341.198239 28.15251 
L 321.67142 28.15251 
z
" clip-path="url(#p79ffed5b3b)" style="fill: #1f77b4"/>
   </g>
   <g id="patch_15">
    <path d="M 346.079943 123.9 
L 365.606761 123.9 
L 365.606761 37.866023 
L 346.079943 37.866023 
z
" clip-path="url(#p79ffed5b3b)" style="fill: #1f77b4"/>
   </g>
   <g id="patch_16">
    <path d="M 370.488466 123.9 
L 390.015284 123.9 
L 390.015284 43.694131 
L 370.488466 43.694131 
z
" clip-path="url(#p79ffed5b3b)" style="fill: #1f77b4"/>
   </g>
   <g id="patch_17">
    <path d="M 394.896989 123.9 
L 414.423807 123.9 
L 414.423807 25.654749 
L 394.896989 25.654749 
z
" clip-path="url(#p79ffed5b3b)" style="fill: #1f77b4"/>
   </g>
   <g id="patch_18">
    <path d="M 419.305511 123.9 
L 438.83233 123.9 
L 438.83233 40.363784 
L 419.305511 40.363784 
z
" clip-path="url(#p79ffed5b3b)" style="fill: #1f77b4"/>
   </g>
   <g id="matplotlib.axis_1">
    <g id="xtick_1">
     <g id="line2d_1">
      <defs>
       <path id="m7ec0edfa78" d="M 0 0 
L 0 3.5 
" style="stroke: #000000; stroke-width: 0.8"/>
      </defs>
      <g>
       <use xlink:href="#m7ec0edfa78" x="62.94108" y="123.9" style="stroke: #000000; stroke-width: 0.8"/>
      </g>
     </g>
     <g id="text_1">
      <!-- 0000 -->
      <g transform="translate(65.700455 156.35) rotate(-90) scale(0.1 -0.1)">
       <defs>
        <path id="DejaVuSans-30" d="M 2034 4250 
Q 1547 4250 1301 3770 
Q 1056 3291 1056 2328 
Q 1056 1369 1301 889 
Q 1547 409 2034 409 
Q 2525 409 2770 889 
Q 3016 1369 3016 2328 
Q 3016 3291 2770 3770 
Q 2525 4250 2034 4250 
z
M 2034 4750 
Q 2819 4750 3233 4129 
Q 3647 3509 3647 2328 
Q 3647 1150 3233 529 
Q 2819 -91 2034 -91 
Q 1250 -91 836 529 
Q 422 1150 422 2328 
Q 422 3509 836 4129 
Q 1250 4750 2034 4750 
z
" transform="scale(0.015625)"/>
       </defs>
       <use xlink:href="#DejaVuSans-30"/>
       <use xlink:href="#DejaVuSans-30" x="63.623047"/>
       <use xlink:href="#DejaVuSans-30" x="127.246094"/>
       <use xlink:href="#DejaVuSans-30" x="190.869141"/>
      </g>
     </g>
    </g>
    <g id="xtick_2">
     <g id="line2d_2">
      <g>
       <use xlink:href="#m7ec0edfa78" x="87.349602" y="123.9" style="stroke: #000000; stroke-width: 0.8"/>
      </g>
     </g>
     <g id="text_2">
      <!-- 0001 -->
      <g transform="translate(90.108977 156.35) rotate(-90) scale(0.1 -0.1)">
       <defs>
        <path id="DejaVuSans-31" d="M 794 531 
L 1825 531 
L 1825 4091 
L 703 3866 
L 703 4441 
L 1819 4666 
L 2450 4666 
L 2450 531 
L 3481 531 
L 3481 0 
L 794 0 
L 794 531 
z
" transform="scale(0.015625)"/>
       </defs>
       <use xlink:href="#DejaVuSans-30"/>
       <use xlink:href="#DejaVuSans-30" x="63.623047"/>
       <use xlink:href="#DejaVuSans-30" x="127.246094"/>
       <use xlink:href="#DejaVuSans-31" x="190.869141"/>
      </g>
     </g>
    </g>
    <g id="xtick_3">
     <g id="line2d_3">
      <g>
       <use xlink:href="#m7ec0edfa78" x="111.758125" y="123.9" style="stroke: #000000; stroke-width: 0.8"/>
      </g>
     </g>
     <g id="text_3">
      <!-- 0010 -->
      <g transform="translate(114.5175 156.35) rotate(-90) scale(0.1 -0.1)">
       <use xlink:href="#DejaVuSans-30"/>
       <use xlink:href="#DejaVuSans-30" x="63.623047"/>
       <use xlink:href="#DejaVuSans-31" x="127.246094"/>
       <use xlink:href="#DejaVuSans-30" x="190.869141"/>
      </g>
     </g>
    </g>
    <g id="xtick_4">
     <g id="line2d_4">
      <g>
       <use xlink:href="#m7ec0edfa78" x="136.166648" y="123.9" style="stroke: #000000; stroke-width: 0.8"/>
      </g>
     </g>
     <g id="text_4">
      <!-- 0100 -->
      <g transform="translate(138.926023 156.35) rotate(-90) scale(0.1 -0.1)">
       <use xlink:href="#DejaVuSans-30"/>
       <use xlink:href="#DejaVuSans-31" x="63.623047"/>
       <use xlink:href="#DejaVuSans-30" x="127.246094"/>
       <use xlink:href="#DejaVuSans-30" x="190.869141"/>
      </g>
     </g>
    </g>
    <g id="xtick_5">
     <g id="line2d_5">
      <g>
       <use xlink:href="#m7ec0edfa78" x="160.57517" y="123.9" style="stroke: #000000; stroke-width: 0.8"/>
      </g>
     </g>
     <g id="text_5">
      <!-- 1000 -->
      <g transform="translate(163.334545 156.35) rotate(-90) scale(0.1 -0.1)">
       <use xlink:href="#DejaVuSans-31"/>
       <use xlink:href="#DejaVuSans-30" x="63.623047"/>
       <use xlink:href="#DejaVuSans-30" x="127.246094"/>
       <use xlink:href="#DejaVuSans-30" x="190.869141"/>
      </g>
     </g>
    </g>
    <g id="xtick_6">
     <g id="line2d_6">
      <g>
       <use xlink:href="#m7ec0edfa78" x="184.983693" y="123.9" style="stroke: #000000; stroke-width: 0.8"/>
      </g>
     </g>
     <g id="text_6">
      <!-- 0011 -->
      <g transform="translate(187.743068 156.35) rotate(-90) scale(0.1 -0.1)">
       <use xlink:href="#DejaVuSans-30"/>
       <use xlink:href="#DejaVuSans-30" x="63.623047"/>
       <use xlink:href="#DejaVuSans-31" x="127.246094"/>
       <use xlink:href="#DejaVuSans-31" x="190.869141"/>
      </g>
     </g>
    </g>
    <g id="xtick_7">
     <g id="line2d_7">
      <g>
       <use xlink:href="#m7ec0edfa78" x="209.392216" y="123.9" style="stroke: #000000; stroke-width: 0.8"/>
      </g>
     </g>
     <g id="text_7">
      <!-- 0101 -->
      <g transform="translate(212.151591 156.35) rotate(-90) scale(0.1 -0.1)">
       <use xlink:href="#DejaVuSans-30"/>
       <use xlink:href="#DejaVuSans-31" x="63.623047"/>
       <use xlink:href="#DejaVuSans-30" x="127.246094"/>
       <use xlink:href="#DejaVuSans-31" x="190.869141"/>
      </g>
     </g>
    </g>
    <g id="xtick_8">
     <g id="line2d_8">
      <g>
       <use xlink:href="#m7ec0edfa78" x="233.800739" y="123.9" style="stroke: #000000; stroke-width: 0.8"/>
      </g>
     </g>
     <g id="text_8">
      <!-- 0110 -->
      <g transform="translate(236.560114 156.35) rotate(-90) scale(0.1 -0.1)">
       <use xlink:href="#DejaVuSans-30"/>
       <use xlink:href="#DejaVuSans-31" x="63.623047"/>
       <use xlink:href="#DejaVuSans-31" x="127.246094"/>
       <use xlink:href="#DejaVuSans-30" x="190.869141"/>
      </g>
     </g>
    </g>
    <g id="xtick_9">
     <g id="line2d_9">
      <g>
       <use xlink:href="#m7ec0edfa78" x="258.209261" y="123.9" style="stroke: #000000; stroke-width: 0.8"/>
      </g>
     </g>
     <g id="text_9">
      <!-- 1001 -->
      <g transform="translate(260.968636 156.35) rotate(-90) scale(0.1 -0.1)">
       <use xlink:href="#DejaVuSans-31"/>
       <use xlink:href="#DejaVuSans-30" x="63.623047"/>
       <use xlink:href="#DejaVuSans-30" x="127.246094"/>
       <use xlink:href="#DejaVuSans-31" x="190.869141"/>
      </g>
     </g>
    </g>
    <g id="xtick_10">
     <g id="line2d_10">
      <g>
       <use xlink:href="#m7ec0edfa78" x="282.617784" y="123.9" style="stroke: #000000; stroke-width: 0.8"/>
      </g>
     </g>
     <g id="text_10">
      <!-- 1010 -->
      <g transform="translate(285.377159 156.35) rotate(-90) scale(0.1 -0.1)">
       <use xlink:href="#DejaVuSans-31"/>
       <use xlink:href="#DejaVuSans-30" x="63.623047"/>
       <use xlink:href="#DejaVuSans-31" x="127.246094"/>
       <use xlink:href="#DejaVuSans-30" x="190.869141"/>
      </g>
     </g>
    </g>
    <g id="xtick_11">
     <g id="line2d_11">
      <g>
       <use xlink:href="#m7ec0edfa78" x="307.026307" y="123.9" style="stroke: #000000; stroke-width: 0.8"/>
      </g>
     </g>
     <g id="text_11">
      <!-- 1100 -->
      <g transform="translate(309.785682 156.35) rotate(-90) scale(0.1 -0.1)">
       <use xlink:href="#DejaVuSans-31"/>
       <use xlink:href="#DejaVuSans-31" x="63.623047"/>
       <use xlink:href="#DejaVuSans-30" x="127.246094"/>
       <use xlink:href="#DejaVuSans-30" x="190.869141"/>
      </g>
     </g>
    </g>
    <g id="xtick_12">
     <g id="line2d_12">
      <g>
       <use xlink:href="#m7ec0edfa78" x="331.43483" y="123.9" style="stroke: #000000; stroke-width: 0.8"/>
      </g>
     </g>
     <g id="text_12">
      <!-- 0111 -->
      <g transform="translate(334.194205 156.35) rotate(-90) scale(0.1 -0.1)">
       <use xlink:href="#DejaVuSans-30"/>
       <use xlink:href="#DejaVuSans-31" x="63.623047"/>
       <use xlink:href="#DejaVuSans-31" x="127.246094"/>
       <use xlink:href="#DejaVuSans-31" x="190.869141"/>
      </g>
     </g>
    </g>
    <g id="xtick_13">
     <g id="line2d_13">
      <g>
       <use xlink:href="#m7ec0edfa78" x="355.843352" y="123.9" style="stroke: #000000; stroke-width: 0.8"/>
      </g>
     </g>
     <g id="text_13">
      <!-- 1011 -->
      <g transform="translate(358.602727 156.35) rotate(-90) scale(0.1 -0.1)">
       <use xlink:href="#DejaVuSans-31"/>
       <use xlink:href="#DejaVuSans-30" x="63.623047"/>
       <use xlink:href="#DejaVuSans-31" x="127.246094"/>
       <use xlink:href="#DejaVuSans-31" x="190.869141"/>
      </g>
     </g>
    </g>
    <g id="xtick_14">
     <g id="line2d_14">
      <g>
       <use xlink:href="#m7ec0edfa78" x="380.251875" y="123.9" style="stroke: #000000; stroke-width: 0.8"/>
      </g>
     </g>
     <g id="text_14">
      <!-- 1101 -->
      <g transform="translate(383.01125 156.35) rotate(-90) scale(0.1 -0.1)">
       <use xlink:href="#DejaVuSans-31"/>
       <use xlink:href="#DejaVuSans-31" x="63.623047"/>
       <use xlink:href="#DejaVuSans-30" x="127.246094"/>
       <use xlink:href="#DejaVuSans-31" x="190.869141"/>
      </g>
     </g>
    </g>
    <g id="xtick_15">
     <g id="line2d_15">
      <g>
       <use xlink:href="#m7ec0edfa78" x="404.660398" y="123.9" style="stroke: #000000; stroke-width: 0.8"/>
      </g>
     </g>
     <g id="text_15">
      <!-- 1110 -->
      <g transform="translate(407.419773 156.35) rotate(-90) scale(0.1 -0.1)">
       <use xlink:href="#DejaVuSans-31"/>
       <use xlink:href="#DejaVuSans-31" x="63.623047"/>
       <use xlink:href="#DejaVuSans-31" x="127.246094"/>
       <use xlink:href="#DejaVuSans-30" x="190.869141"/>
      </g>
     </g>
    </g>
    <g id="xtick_16">
     <g id="line2d_16">
      <g>
       <use xlink:href="#m7ec0edfa78" x="429.06892" y="123.9" style="stroke: #000000; stroke-width: 0.8"/>
      </g>
     </g>
     <g id="text_16">
      <!-- 1111 -->
      <g transform="translate(431.828295 156.35) rotate(-90) scale(0.1 -0.1)">
       <use xlink:href="#DejaVuSans-31"/>
       <use xlink:href="#DejaVuSans-31" x="63.623047"/>
       <use xlink:href="#DejaVuSans-31" x="127.246094"/>
       <use xlink:href="#DejaVuSans-31" x="190.869141"/>
      </g>
     </g>
    </g>
    <g id="text_17">
     <!-- 4-bits word value -->
     <g transform="translate(202.765156 167.948437) scale(0.1 -0.1)">
      <defs>
       <path id="DejaVuSans-34" d="M 2419 4116 
L 825 1625 
L 2419 1625 
L 2419 4116 
z
M 2253 4666 
L 3047 4666 
L 3047 1625 
L 3713 1625 
L 3713 1100 
L 3047 1100 
L 3047 0 
L 2419 0 
L 2419 1100 
L 313 1100 
L 313 1709 
L 2253 4666 
z
" transform="scale(0.015625)"/>
       <path id="DejaVuSans-2d" d="M 313 2009 
L 1997 2009 
L 1997 1497 
L 313 1497 
L 313 2009 
z
" transform="scale(0.015625)"/>
       <path id="DejaVuSans-62" d="M 3116 1747 
Q 3116 2381 2855 2742 
Q 2594 3103 2138 3103 
Q 1681 3103 1420 2742 
Q 1159 2381 1159 1747 
Q 1159 1113 1420 752 
Q 1681 391 2138 391 
Q 2594 391 2855 752 
Q 3116 1113 3116 1747 
z
M 1159 2969 
Q 1341 3281 1617 3432 
Q 1894 3584 2278 3584 
Q 2916 3584 3314 3078 
Q 3713 2572 3713 1747 
Q 3713 922 3314 415 
Q 2916 -91 2278 -91 
Q 1894 -91 1617 61 
Q 1341 213 1159 525 
L 1159 0 
L 581 0 
L 581 4863 
L 1159 4863 
L 1159 2969 
z
" transform="scale(0.015625)"/>
       <path id="DejaVuSans-69" d="M 603 3500 
L 1178 3500 
L 1178 0 
L 603 0 
L 603 3500 
z
M 603 4863 
L 1178 4863 
L 1178 4134 
L 603 4134 
L 603 4863 
z
" transform="scale(0.015625)"/>
       <path id="DejaVuSans-74" d="M 1172 4494 
L 1172 3500 
L 2356 3500 
L 2356 3053 
L 1172 3053 
L 1172 1153 
Q 1172 725 1289 603 
Q 1406 481 1766 481 
L 2356 481 
L 2356 0 
L 1766 0 
Q 1100 0 847 248 
Q 594 497 594 1153 
L 594 3053 
L 172 3053 
L 172 3500 
L 594 3500 
L 594 4494 
L 1172 4494 
z
" transform="scale(0.015625)"/>
       <path id="DejaVuSans-73" d="M 2834 3397 
L 2834 2853 
Q 2591 2978 2328 3040 
Q 2066 3103 1784 3103 
Q 1356 3103 1142 2972 
Q 928 2841 928 2578 
Q 928 2378 1081 2264 
Q 1234 2150 1697 2047 
L 1894 2003 
Q 2506 1872 2764 1633 
Q 3022 1394 3022 966 
Q 3022 478 2636 193 
Q 2250 -91 1575 -91 
Q 1294 -91 989 -36 
Q 684 19 347 128 
L 347 722 
Q 666 556 975 473 
Q 1284 391 1588 391 
Q 1994 391 2212 530 
Q 2431 669 2431 922 
Q 2431 1156 2273 1281 
Q 2116 1406 1581 1522 
L 1381 1569 
Q 847 1681 609 1914 
Q 372 2147 372 2553 
Q 372 3047 722 3315 
Q 1072 3584 1716 3584 
Q 2034 3584 2315 3537 
Q 2597 3491 2834 3397 
z
" transform="scale(0.015625)"/>
       <path id="DejaVuSans-20" transform="scale(0.015625)"/>
       <path id="DejaVuSans-77" d="M 269 3500 
L 844 3500 
L 1563 769 
L 2278 3500 
L 2956 3500 
L 3675 769 
L 4391 3500 
L 4966 3500 
L 4050 0 
L 3372 0 
L 2619 2869 
L 1863 0 
L 1184 0 
L 269 3500 
z
" transform="scale(0.015625)"/>
       <path id="DejaVuSans-6f" d="M 1959 3097 
Q 1497 3097 1228 2736 
Q 959 2375 959 1747 
Q 959 1119 1226 758 
Q 1494 397 1959 397 
Q 2419 397 2687 759 
Q 2956 1122 2956 1747 
Q 2956 2369 2687 2733 
Q 2419 3097 1959 3097 
z
M 1959 3584 
Q 2709 3584 3137 3096 
Q 3566 2609 3566 1747 
Q 3566 888 3137 398 
Q 2709 -91 1959 -91 
Q 1206 -91 779 398 
Q 353 888 353 1747 
Q 353 2609 779 3096 
Q 1206 3584 1959 3584 
z
" transform="scale(0.015625)"/>
       <path id="DejaVuSans-72" d="M 2631 2963 
Q 2534 3019 2420 3045 
Q 2306 3072 2169 3072 
Q 1681 3072 1420 2755 
Q 1159 2438 1159 1844 
L 1159 0 
L 581 0 
L 581 3500 
L 1159 3500 
L 1159 2956 
Q 1341 3275 1631 3429 
Q 1922 3584 2338 3584 
Q 2397 3584 2469 3576 
Q 2541 3569 2628 3553 
L 2631 2963 
z
" transform="scale(0.015625)"/>
       <path id="DejaVuSans-64" d="M 2906 2969 
L 2906 4863 
L 3481 4863 
L 3481 0 
L 2906 0 
L 2906 525 
Q 2725 213 2448 61 
Q 2172 -91 1784 -91 
Q 1150 -91 751 415 
Q 353 922 353 1747 
Q 353 2572 751 3078 
Q 1150 3584 1784 3584 
Q 2172 3584 2448 3432 
Q 2725 3281 2906 2969 
z
M 947 1747 
Q 947 1113 1208 752 
Q 1469 391 1925 391 
Q 2381 391 2643 752 
Q 2906 1113 2906 1747 
Q 2906 2381 2643 2742 
Q 2381 3103 1925 3103 
Q 1469 3103 1208 2742 
Q 947 2381 947 1747 
z
" transform="scale(0.015625)"/>
       <path id="DejaVuSans-76" d="M 191 3500 
L 800 3500 
L 1894 563 
L 2988 3500 
L 3597 3500 
L 2284 0 
L 1503 0 
L 191 3500 
z
" transform="scale(0.015625)"/>
       <path id="DejaVuSans-61" d="M 2194 1759 
Q 1497 1759 1228 1600 
Q 959 1441 959 1056 
Q 959 750 1161 570 
Q 1363 391 1709 391 
Q 2188 391 2477 730 
Q 2766 1069 2766 1631 
L 2766 1759 
L 2194 1759 
z
M 3341 1997 
L 3341 0 
L 2766 0 
L 2766 531 
Q 2569 213 2275 61 
Q 1981 -91 1556 -91 
Q 1019 -91 701 211 
Q 384 513 384 1019 
Q 384 1609 779 1909 
Q 1175 2209 1959 2209 
L 2766 2209 
L 2766 2266 
Q 2766 2663 2505 2880 
Q 2244 3097 1772 3097 
Q 1472 3097 1187 3025 
Q 903 2953 641 2809 
L 641 3341 
Q 956 3463 1253 3523 
Q 1550 3584 1831 3584 
Q 2591 3584 2966 3190 
Q 3341 2797 3341 1997 
z
" transform="scale(0.015625)"/>
       <path id="DejaVuSans-6c" d="M 603 4863 
L 1178 4863 
L 1178 0 
L 603 0 
L 603 4863 
z
" transform="scale(0.015625)"/>
       <path id="DejaVuSans-75" d="M 544 1381 
L 544 3500 
L 1119 3500 
L 1119 1403 
Q 1119 906 1312 657 
Q 1506 409 1894 409 
Q 2359 409 2629 706 
Q 2900 1003 2900 1516 
L 2900 3500 
L 3475 3500 
L 3475 0 
L 2900 0 
L 2900 538 
Q 2691 219 2414 64 
Q 2138 -91 1772 -91 
Q 1169 -91 856 284 
Q 544 659 544 1381 
z
M 1991 3584 
L 1991 3584 
z
" transform="scale(0.015625)"/>
       <path id="DejaVuSans-65" d="M 3597 1894 
L 3597 1613 
L 953 1613 
Q 991 1019 1311 708 
Q 1631 397 2203 397 
Q 2534 397 2845 478 
Q 3156 559 3463 722 
L 3463 178 
Q 3153 47 2828 -22 
Q 2503 -91 2169 -91 
Q 1331 -91 842 396 
Q 353 884 353 1716 
Q 353 2575 817 3079 
Q 1281 3584 2069 3584 
Q 2775 3584 3186 3129 
Q 3597 2675 3597 1894 
z
M 3022 2063 
Q 3016 2534 2758 2815 
Q 2500 3097 2075 3097 
Q 1594 3097 1305 2825 
Q 1016 2553 972 2059 
L 3022 2063 
z
" transform="scale(0.015625)"/>
      </defs>
      <use xlink:href="#DejaVuSans-34"/>
      <use xlink:href="#DejaVuSans-2d" x="63.623047"/>
      <use xlink:href="#DejaVuSans-62" x="99.707031"/>
      <use xlink:href="#DejaVuSans-69" x="163.183594"/>
      <use xlink:href="#DejaVuSans-74" x="190.966797"/>
      <use xlink:href="#DejaVuSans-73" x="230.175781"/>
      <use xlink:href="#DejaVuSans-20" x="282.275391"/>
      <use xlink:href="#DejaVuSans-77" x="314.0625"/>
      <use xlink:href="#DejaVuSans-6f" x="395.849609"/>
      <use xlink:href="#DejaVuSans-72" x="457.03125"/>
      <use xlink:href="#DejaVuSans-64" x="496.394531"/>
      <use xlink:href="#DejaVuSans-20" x="559.871094"/>
      <use xlink:href="#DejaVuSans-76" x="591.658203"/>
      <use xlink:href="#DejaVuSans-61" x="650.837891"/>
      <use xlink:href="#DejaVuSans-6c" x="712.117188"/>
      <use xlink:href="#DejaVuSans-75" x="739.900391"/>
      <use xlink:href="#DejaVuSans-65" x="803.279297"/>
     </g>
    </g>
   </g>
   <g id="matplotlib.axis_2">
    <g id="ytick_1">
     <g id="line2d_17">
      <defs>
       <path id="m929985ad76" d="M 0 0 
L -3.5 0 
" style="stroke: #000000; stroke-width: 0.8"/>
      </defs>
      <g>
       <use xlink:href="#m929985ad76" x="31.21" y="123.9" style="stroke: #000000; stroke-width: 0.8"/>
      </g>
     </g>
     <g id="text_18">
      <!-- 0 -->
      <g transform="translate(17.8475 127.699219) scale(0.1 -0.1)">
       <use xlink:href="#DejaVuSans-30"/>
      </g>
     </g>
    </g>
    <g id="ytick_2">
     <g id="line2d_18">
      <g>
       <use xlink:href="#m929985ad76" x="31.21" y="96.147104" style="stroke: #000000; stroke-width: 0.8"/>
      </g>
     </g>
     <g id="text_19">
      <!-- 100 -->
      <g transform="translate(5.1225 99.946323) scale(0.1 -0.1)">
       <use xlink:href="#DejaVuSans-31"/>
       <use xlink:href="#DejaVuSans-30" x="63.623047"/>
       <use xlink:href="#DejaVuSans-30" x="127.246094"/>
      </g>
     </g>
    </g>
    <g id="ytick_3">
     <g id="line2d_19">
      <g>
       <use xlink:href="#m929985ad76" x="31.21" y="68.394208" style="stroke: #000000; stroke-width: 0.8"/>
      </g>
     </g>
     <g id="text_20">
      <!-- 200 -->
      <g transform="translate(5.1225 72.193427) scale(0.1 -0.1)">
       <defs>
        <path id="DejaVuSans-32" d="M 1228 531 
L 3431 531 
L 3431 0 
L 469 0 
L 469 531 
Q 828 903 1448 1529 
Q 2069 2156 2228 2338 
Q 2531 2678 2651 2914 
Q 2772 3150 2772 3378 
Q 2772 3750 2511 3984 
Q 2250 4219 1831 4219 
Q 1534 4219 1204 4116 
Q 875 4013 500 3803 
L 500 4441 
Q 881 4594 1212 4672 
Q 1544 4750 1819 4750 
Q 2544 4750 2975 4387 
Q 3406 4025 3406 3419 
Q 3406 3131 3298 2873 
Q 3191 2616 2906 2266 
Q 2828 2175 2409 1742 
Q 1991 1309 1228 531 
z
" transform="scale(0.015625)"/>
       </defs>
       <use xlink:href="#DejaVuSans-32"/>
       <use xlink:href="#DejaVuSans-30" x="63.623047"/>
       <use xlink:href="#DejaVuSans-30" x="127.246094"/>
      </g>
     </g>
    </g>
    <g id="ytick_4">
     <g id="line2d_20">
      <g>
       <use xlink:href="#m929985ad76" x="31.21" y="40.641313" style="stroke: #000000; stroke-width: 0.8"/>
      </g>
     </g>
     <g id="text_21">
      <!-- 300 -->
      <g transform="translate(5.1225 44.440531) scale(0.1 -0.1)">
       <defs>
        <path id="DejaVuSans-33" d="M 2597 2516 
Q 3050 2419 3304 2112 
Q 3559 1806 3559 1356 
Q 3559 666 3084 287 
Q 2609 -91 1734 -91 
Q 1441 -91 1130 -33 
Q 819 25 488 141 
L 488 750 
Q 750 597 1062 519 
Q 1375 441 1716 441 
Q 2309 441 2620 675 
Q 2931 909 2931 1356 
Q 2931 1769 2642 2001 
Q 2353 2234 1838 2234 
L 1294 2234 
L 1294 2753 
L 1863 2753 
Q 2328 2753 2575 2939 
Q 2822 3125 2822 3475 
Q 2822 3834 2567 4026 
Q 2313 4219 1838 4219 
Q 1578 4219 1281 4162 
Q 984 4106 628 3988 
L 628 4550 
Q 988 4650 1302 4700 
Q 1616 4750 1894 4750 
Q 2613 4750 3031 4423 
Q 3450 4097 3450 3541 
Q 3450 3153 3228 2886 
Q 3006 2619 2597 2516 
z
" transform="scale(0.015625)"/>
       </defs>
       <use xlink:href="#DejaVuSans-33"/>
       <use xlink:href="#DejaVuSans-30" x="63.623047"/>
       <use xlink:href="#DejaVuSans-30" x="127.246094"/>
      </g>
     </g>
    </g>
   </g>
   <g id="line2d_21">
    <path d="M 50.736818 21.214286 
L 75.145341 21.214286 
L 99.553864 21.214286 
L 123.962386 21.214286 
L 148.370909 21.214286 
L 172.779432 21.214286 
L 197.187955 21.214286 
L 221.596477 21.214286 
L 246.005 21.214286 
L 270.413523 21.214286 
L 294.822045 21.214286 
L 319.230568 21.214286 
L 343.639091 21.214286 
L 368.047614 21.214286 
L 392.456136 21.214286 
L 416.864659 21.214286 
L 441.273182 21.214286 
" clip-path="url(#p79ffed5b3b)" style="fill: none; stroke: #ff0000; stroke-width: 1.5; stroke-linecap: square"/>
   </g>
   <g id="line2d_22">
    <path d="M 50.736818 53.407645 
L 75.145341 53.407645 
L 99.553864 53.407645 
L 123.962386 53.407645 
L 148.370909 53.407645 
L 172.779432 53.407645 
L 197.187955 53.407645 
L 221.596477 53.407645 
L 246.005 53.407645 
L 270.413523 53.407645 
L 294.822045 53.407645 
L 319.230568 53.407645 
L 343.639091 53.407645 
L 368.047614 53.407645 
L 392.456136 53.407645 
L 416.864659 53.407645 
L 441.273182 53.407645 
" clip-path="url(#p79ffed5b3b)" style="fill: none; stroke: #ff0000; stroke-width: 1.5; stroke-linecap: square"/>
   </g>
   <g id="patch_19">
    <path d="M 31.21 123.9 
L 31.21 16.08 
" style="fill: none; stroke: #000000; stroke-width: 0.8; stroke-linejoin: miter; stroke-linecap: square"/>
   </g>
   <g id="patch_20">
    <path d="M 460.8 123.9 
L 460.8 16.08 
" style="fill: none; stroke: #000000; stroke-width: 0.8; stroke-linejoin: miter; stroke-linecap: square"/>
   </g>
   <g id="patch_21">
    <path d="M 31.21 123.9 
L 460.8 123.9 
" style="fill: none; stroke: #000000; stroke-width: 0.8; stroke-linejoin: miter; stroke-linecap: square"/>
   </g>
   <g id="patch_22">
    <path d="M 31.21 16.08 
L 460.8 16.08 
" style="fill: none; stroke: #000000; stroke-width: 0.8; stroke-linejoin: miter; stroke-linecap: square"/>
   </g>
   <g id="text_22">
    <!-- 4-bits words distribution -->
    <g transform="translate(173.189375 10.08) scale(0.12 -0.12)">
     <defs>
      <path id="DejaVuSans-6e" d="M 3513 2113 
L 3513 0 
L 2938 0 
L 2938 2094 
Q 2938 2591 2744 2837 
Q 2550 3084 2163 3084 
Q 1697 3084 1428 2787 
Q 1159 2491 1159 1978 
L 1159 0 
L 581 0 
L 581 3500 
L 1159 3500 
L 1159 2956 
Q 1366 3272 1645 3428 
Q 1925 3584 2291 3584 
Q 2894 3584 3203 3211 
Q 3513 2838 3513 2113 
z
" transform="scale(0.015625)"/>
     </defs>
     <use xlink:href="#DejaVuSans-34"/>
     <use xlink:href="#DejaVuSans-2d" x="63.623047"/>
     <use xlink:href="#DejaVuSans-62" x="99.707031"/>
     <use xlink:href="#DejaVuSans-69" x="163.183594"/>
     <use xlink:href="#DejaVuSans-74" x="190.966797"/>
     <use xlink:href="#DejaVuSans-73" x="230.175781"/>
     <use xlink:href="#DejaVuSans-20" x="282.275391"/>
     <use xlink:href="#DejaVuSans-77" x="314.0625"/>
     <use xlink:href="#DejaVuSans-6f" x="395.849609"/>
     <use xlink:href="#DejaVuSans-72" x="457.03125"/>
     <use xlink:href="#DejaVuSans-64" x="496.394531"/>
     <use xlink:href="#DejaVuSans-73" x="559.871094"/>
     <use xlink:href="#DejaVuSans-20" x="611.970703"/>
     <use xlink:href="#DejaVuSans-64" x="643.757812"/>
     <use xlink:href="#DejaVuSans-69" x="707.234375"/>
     <use xlink:href="#DejaVuSans-73" x="735.017578"/>
     <use xlink:href="#DejaVuSans-74" x="787.117188"/>
     <use xlink:href="#DejaVuSans-72" x="826.326172"/>
     <use xlink:href="#DejaVuSans-69" x="867.439453"/>
     <use xlink:href="#DejaVuSans-62" x="895.222656"/>
     <use xlink:href="#DejaVuSans-75" x="958.699219"/>
     <use xlink:href="#DejaVuSans-74" x="1022.078125"/>
     <use xlink:href="#DejaVuSans-69" x="1061.287109"/>
     <use xlink:href="#DejaVuSans-6f" x="1089.070312"/>
     <use xlink:href="#DejaVuSans-6e" x="1150.251953"/>
    </g>
   </g>
  </g>
  <g id="axes_2">
   <g id="patch_23">
    <path d="M 31.21 314.44 
L 460.8 314.44 
L 460.8 206.62 
L 31.21 206.62 
z
" style="fill: #ffffff"/>
   </g>
   <g id="matplotlib.axis_3">
    <g id="xtick_17">
     <g id="line2d_23">
      <g>
       <use xlink:href="#m7ec0edfa78" x="50.736818" y="314.44" style="stroke: #000000; stroke-width: 0.8"/>
      </g>
     </g>
     <g id="text_23">
      <!-- 0 -->
      <g transform="translate(47.555568 329.038437) scale(0.1 -0.1)">
       <use xlink:href="#DejaVuSans-30"/>
      </g>
     </g>
    </g>
    <g id="xtick_18">
     <g id="line2d_24">
      <g>
       <use xlink:href="#m7ec0edfa78" x="129.633053" y="314.44" style="stroke: #000000; stroke-width: 0.8"/>
      </g>
     </g>
     <g id="text_24">
      <!-- 20 -->
      <g transform="translate(123.270553 329.038437) scale(0.1 -0.1)">
       <use xlink:href="#DejaVuSans-32"/>
       <use xlink:href="#DejaVuSans-30" x="63.623047"/>
      </g>
     </g>
    </g>
    <g id="xtick_19">
     <g id="line2d_25">
      <g>
       <use xlink:href="#m7ec0edfa78" x="208.529288" y="314.44" style="stroke: #000000; stroke-width: 0.8"/>
      </g>
     </g>
     <g id="text_25">
      <!-- 40 -->
      <g transform="translate(202.166788 329.038437) scale(0.1 -0.1)">
       <use xlink:href="#DejaVuSans-34"/>
       <use xlink:href="#DejaVuSans-30" x="63.623047"/>
      </g>
     </g>
    </g>
    <g id="xtick_20">
     <g id="line2d_26">
      <g>
       <use xlink:href="#m7ec0edfa78" x="287.425523" y="314.44" style="stroke: #000000; stroke-width: 0.8"/>
      </g>
     </g>
     <g id="text_26">
      <!-- 60 -->
      <g transform="translate(281.063023 329.038437) scale(0.1 -0.1)">
       <defs>
        <path id="DejaVuSans-36" d="M 2113 2584 
Q 1688 2584 1439 2293 
Q 1191 2003 1191 1497 
Q 1191 994 1439 701 
Q 1688 409 2113 409 
Q 2538 409 2786 701 
Q 3034 994 3034 1497 
Q 3034 2003 2786 2293 
Q 2538 2584 2113 2584 
z
M 3366 4563 
L 3366 3988 
Q 3128 4100 2886 4159 
Q 2644 4219 2406 4219 
Q 1781 4219 1451 3797 
Q 1122 3375 1075 2522 
Q 1259 2794 1537 2939 
Q 1816 3084 2150 3084 
Q 2853 3084 3261 2657 
Q 3669 2231 3669 1497 
Q 3669 778 3244 343 
Q 2819 -91 2113 -91 
Q 1303 -91 875 529 
Q 447 1150 447 2328 
Q 447 3434 972 4092 
Q 1497 4750 2381 4750 
Q 2619 4750 2861 4703 
Q 3103 4656 3366 4563 
z
" transform="scale(0.015625)"/>
       </defs>
       <use xlink:href="#DejaVuSans-36"/>
       <use xlink:href="#DejaVuSans-30" x="63.623047"/>
      </g>
     </g>
    </g>
    <g id="xtick_21">
     <g id="line2d_27">
      <g>
       <use xlink:href="#m7ec0edfa78" x="366.321758" y="314.44" style="stroke: #000000; stroke-width: 0.8"/>
      </g>
     </g>
     <g id="text_27">
      <!-- 80 -->
      <g transform="translate(359.959258 329.038437) scale(0.1 -0.1)">
       <defs>
        <path id="DejaVuSans-38" d="M 2034 2216 
Q 1584 2216 1326 1975 
Q 1069 1734 1069 1313 
Q 1069 891 1326 650 
Q 1584 409 2034 409 
Q 2484 409 2743 651 
Q 3003 894 3003 1313 
Q 3003 1734 2745 1975 
Q 2488 2216 2034 2216 
z
M 1403 2484 
Q 997 2584 770 2862 
Q 544 3141 544 3541 
Q 544 4100 942 4425 
Q 1341 4750 2034 4750 
Q 2731 4750 3128 4425 
Q 3525 4100 3525 3541 
Q 3525 3141 3298 2862 
Q 3072 2584 2669 2484 
Q 3125 2378 3379 2068 
Q 3634 1759 3634 1313 
Q 3634 634 3220 271 
Q 2806 -91 2034 -91 
Q 1263 -91 848 271 
Q 434 634 434 1313 
Q 434 1759 690 2068 
Q 947 2378 1403 2484 
z
M 1172 3481 
Q 1172 3119 1398 2916 
Q 1625 2713 2034 2713 
Q 2441 2713 2670 2916 
Q 2900 3119 2900 3481 
Q 2900 3844 2670 4047 
Q 2441 4250 2034 4250 
Q 1625 4250 1398 4047 
Q 1172 3844 1172 3481 
z
" transform="scale(0.015625)"/>
       </defs>
       <use xlink:href="#DejaVuSans-38"/>
       <use xlink:href="#DejaVuSans-30" x="63.623047"/>
      </g>
     </g>
    </g>
    <g id="xtick_22">
     <g id="line2d_28">
      <g>
       <use xlink:href="#m7ec0edfa78" x="445.217994" y="314.44" style="stroke: #000000; stroke-width: 0.8"/>
      </g>
     </g>
     <g id="text_28">
      <!-- 100 -->
      <g transform="translate(435.674244 329.038437) scale(0.1 -0.1)">
       <use xlink:href="#DejaVuSans-31"/>
       <use xlink:href="#DejaVuSans-30" x="63.623047"/>
       <use xlink:href="#DejaVuSans-30" x="127.246094"/>
      </g>
     </g>
    </g>
    <g id="text_29">
     <!-- Lag -->
     <g transform="translate(236.980781 342.716563) scale(0.1 -0.1)">
      <defs>
       <path id="DejaVuSans-4c" d="M 628 4666 
L 1259 4666 
L 1259 531 
L 3531 531 
L 3531 0 
L 628 0 
L 628 4666 
z
" transform="scale(0.015625)"/>
       <path id="DejaVuSans-67" d="M 2906 1791 
Q 2906 2416 2648 2759 
Q 2391 3103 1925 3103 
Q 1463 3103 1205 2759 
Q 947 2416 947 1791 
Q 947 1169 1205 825 
Q 1463 481 1925 481 
Q 2391 481 2648 825 
Q 2906 1169 2906 1791 
z
M 3481 434 
Q 3481 -459 3084 -895 
Q 2688 -1331 1869 -1331 
Q 1566 -1331 1297 -1286 
Q 1028 -1241 775 -1147 
L 775 -588 
Q 1028 -725 1275 -790 
Q 1522 -856 1778 -856 
Q 2344 -856 2625 -561 
Q 2906 -266 2906 331 
L 2906 616 
Q 2728 306 2450 153 
Q 2172 0 1784 0 
Q 1141 0 747 490 
Q 353 981 353 1791 
Q 353 2603 747 3093 
Q 1141 3584 1784 3584 
Q 2172 3584 2450 3431 
Q 2728 3278 2906 2969 
L 2906 3500 
L 3481 3500 
L 3481 434 
z
" transform="scale(0.015625)"/>
      </defs>
      <use xlink:href="#DejaVuSans-4c"/>
      <use xlink:href="#DejaVuSans-61" x="55.712891"/>
      <use xlink:href="#DejaVuSans-67" x="116.992188"/>
     </g>
    </g>
   </g>
   <g id="matplotlib.axis_4">
    <g id="ytick_5">
     <g id="line2d_29">
      <g>
       <use xlink:href="#m929985ad76" x="31.21" y="303.186061" style="stroke: #000000; stroke-width: 0.8"/>
      </g>
     </g>
     <g id="text_30">
      <!-- −0.2 -->
      <g transform="translate(-0.072813 306.985279) scale(0.1 -0.1)">
       <defs>
        <path id="DejaVuSans-2212" d="M 678 2272 
L 4684 2272 
L 4684 1741 
L 678 1741 
L 678 2272 
z
" transform="scale(0.015625)"/>
        <path id="DejaVuSans-2e" d="M 684 794 
L 1344 794 
L 1344 0 
L 684 0 
L 684 794 
z
" transform="scale(0.015625)"/>
       </defs>
       <use xlink:href="#DejaVuSans-2212"/>
       <use xlink:href="#DejaVuSans-30" x="83.789062"/>
       <use xlink:href="#DejaVuSans-2e" x="147.412109"/>
       <use xlink:href="#DejaVuSans-32" x="179.199219"/>
      </g>
     </g>
    </g>
    <g id="ytick_6">
     <g id="line2d_30">
      <g>
       <use xlink:href="#m929985ad76" x="31.21" y="260.832525" style="stroke: #000000; stroke-width: 0.8"/>
      </g>
     </g>
     <g id="text_31">
      <!-- 0.0 -->
      <g transform="translate(8.306875 264.631744) scale(0.1 -0.1)">
       <use xlink:href="#DejaVuSans-30"/>
       <use xlink:href="#DejaVuSans-2e" x="63.623047"/>
       <use xlink:href="#DejaVuSans-30" x="95.410156"/>
      </g>
     </g>
    </g>
    <g id="ytick_7">
     <g id="line2d_31">
      <g>
       <use xlink:href="#m929985ad76" x="31.21" y="218.47899" style="stroke: #000000; stroke-width: 0.8"/>
      </g>
     </g>
     <g id="text_32">
      <!-- 0.2 -->
      <g transform="translate(8.306875 222.278209) scale(0.1 -0.1)">
       <use xlink:href="#DejaVuSans-30"/>
       <use xlink:href="#DejaVuSans-2e" x="63.623047"/>
       <use xlink:href="#DejaVuSans-32" x="95.410156"/>
      </g>
     </g>
    </g>
   </g>
   <g id="line2d_32">
    <path d="M 50.736818 232.611241 
L 54.68163 271.982742 
L 58.626442 263.295945 
L 62.571253 211.520909 
L 66.516065 293.807778 
L 70.460877 244.928341 
L 74.405689 272.890317 
L 78.3505 239.007489 
L 82.295312 251.454242 
L 86.240124 240.563333 
L 90.184936 241.125166 
L 94.129747 266.364416 
L 98.074559 268.957489 
L 102.019371 266.537287 
L 105.964183 270.081154 
L 109.908994 267.877042 
L 113.853806 288.275887 
L 117.798618 255.732814 
L 121.74343 267.401645 
L 125.688242 279.934834 
L 129.633053 267.833824 
L 133.577865 253.528701 
L 137.522677 273.797893 
L 141.467489 253.226176 
L 145.4123 267.228773 
L 149.357112 273.711457 
L 153.301924 235.852583 
L 157.246736 246.613838 
L 161.191547 263.252727 
L 165.136359 260.962179 
L 169.081171 288.535195 
L 173.025983 258.239452 
L 176.970794 278.292554 
L 180.915606 251.972857 
L 184.860418 266.148326 
L 188.80523 253.399048 
L 192.750041 242.378485 
L 196.694853 250.417013 
L 200.639665 241.686999 
L 204.584477 242.421703 
L 208.529288 265.629711 
L 212.4741 253.744791 
L 216.418912 279.848398 
L 220.363724 261.783319 
L 224.308535 257.720837 
L 228.253347 272.155613 
L 232.198159 254.090534 
L 236.142971 270.470115 
L 240.087782 283.435483 
L 244.032594 244.53938 
L 247.977406 264.203521 
L 251.922218 271.80987 
L 255.867029 269.908283 
L 259.811841 241.25482 
L 263.756653 250.373795 
L 267.701465 265.24075 
L 271.646276 235.377186 
L 275.591088 256.035339 
L 279.5359 260.918961 
L 283.480712 262.085844 
L 287.425523 269.173579 
L 291.370335 260.616436 
L 295.315147 249.639091 
L 299.259959 255.343853 
L 303.20477 260.227475 
L 307.149582 260.313911 
L 311.094394 263.59847 
L 315.039206 243.977547 
L 318.984017 244.841905 
L 322.928829 260.616436 
L 326.873641 246.916364 
L 330.818453 283.435483 
L 334.763264 228.419105 
L 338.708076 280.453449 
L 342.652888 272.587792 
L 346.5977 235.766147 
L 350.542511 271.075166 
L 354.487323 248.817951 
L 358.432135 284.386277 
L 362.376947 220.553449 
L 366.321758 274.057201 
L 370.26657 264.938225 
L 374.211382 263.339163 
L 378.156194 286.763261 
L 382.101006 232.568023 
L 386.045817 253.485483 
L 389.990629 250.460231 
L 393.935441 254.393059 
L 397.880253 260.616436 
L 401.825064 258.412323 
L 405.769876 256.942915 
L 409.714688 267.315209 
L 413.6595 265.716147 
L 417.604311 250.89241 
L 421.549123 271.291255 
L 425.493935 256.899697 
L 429.438747 254.479495 
L 433.383558 283.565137 
L 437.32837 250.805974 
L 441.273182 281.274589 
" clip-path="url(#p270a59a0fb)" style="fill: none; stroke: #1f77b4; stroke-width: 1.5; stroke-linecap: square"/>
   </g>
   <g id="line2d_33">
    <path d="M 50.736818 212.12596 
L 54.68163 212.12596 
L 58.626442 212.12596 
L 62.571253 212.12596 
L 66.516065 212.12596 
L 70.460877 212.12596 
L 74.405689 212.12596 
L 78.3505 212.12596 
L 82.295312 212.12596 
L 86.240124 212.12596 
L 90.184936 212.12596 
L 94.129747 212.12596 
L 98.074559 212.12596 
L 102.019371 212.12596 
L 105.964183 212.12596 
L 109.908994 212.12596 
L 113.853806 212.12596 
L 117.798618 212.12596 
L 121.74343 212.12596 
L 125.688242 212.12596 
L 129.633053 212.12596 
L 133.577865 212.12596 
L 137.522677 212.12596 
L 141.467489 212.12596 
L 145.4123 212.12596 
L 149.357112 212.12596 
L 153.301924 212.12596 
L 157.246736 212.12596 
L 161.191547 212.12596 
L 165.136359 212.12596 
L 169.081171 212.12596 
L 173.025983 212.12596 
L 176.970794 212.12596 
L 180.915606 212.12596 
L 184.860418 212.12596 
L 188.80523 212.12596 
L 192.750041 212.12596 
L 196.694853 212.12596 
L 200.639665 212.12596 
L 204.584477 212.12596 
L 208.529288 212.12596 
L 212.4741 212.12596 
L 216.418912 212.12596 
L 220.363724 212.12596 
L 224.308535 212.12596 
L 228.253347 212.12596 
L 232.198159 212.12596 
L 236.142971 212.12596 
L 240.087782 212.12596 
L 244.032594 212.12596 
L 247.977406 212.12596 
L 251.922218 212.12596 
L 255.867029 212.12596 
L 259.811841 212.12596 
L 263.756653 212.12596 
L 267.701465 212.12596 
L 271.646276 212.12596 
L 275.591088 212.12596 
L 279.5359 212.12596 
L 283.480712 212.12596 
L 287.425523 212.12596 
L 291.370335 212.12596 
L 295.315147 212.12596 
L 299.259959 212.12596 
L 303.20477 212.12596 
L 307.149582 212.12596 
L 311.094394 212.12596 
L 315.039206 212.12596 
L 318.984017 212.12596 
L 322.928829 212.12596 
L 326.873641 212.12596 
L 330.818453 212.12596 
L 334.763264 212.12596 
L 338.708076 212.12596 
L 342.652888 212.12596 
L 346.5977 212.12596 
L 350.542511 212.12596 
L 354.487323 212.12596 
L 358.432135 212.12596 
L 362.376947 212.12596 
L 366.321758 212.12596 
L 370.26657 212.12596 
L 374.211382 212.12596 
L 378.156194 212.12596 
L 382.101006 212.12596 
L 386.045817 212.12596 
L 389.990629 212.12596 
L 393.935441 212.12596 
L 397.880253 212.12596 
L 401.825064 212.12596 
L 405.769876 212.12596 
L 409.714688 212.12596 
L 413.6595 212.12596 
L 417.604311 212.12596 
L 421.549123 212.12596 
L 425.493935 212.12596 
L 429.438747 212.12596 
L 433.383558 212.12596 
L 437.32837 212.12596 
L 441.273182 212.12596 
" clip-path="url(#p270a59a0fb)" style="fill: none; stroke: #ff0000; stroke-width: 1.5; stroke-linecap: square"/>
   </g>
   <g id="line2d_34">
    <path d="M 50.736818 309.539091 
L 54.68163 309.539091 
L 58.626442 309.539091 
L 62.571253 309.539091 
L 66.516065 309.539091 
L 70.460877 309.539091 
L 74.405689 309.539091 
L 78.3505 309.539091 
L 82.295312 309.539091 
L 86.240124 309.539091 
L 90.184936 309.539091 
L 94.129747 309.539091 
L 98.074559 309.539091 
L 102.019371 309.539091 
L 105.964183 309.539091 
L 109.908994 309.539091 
L 113.853806 309.539091 
L 117.798618 309.539091 
L 121.74343 309.539091 
L 125.688242 309.539091 
L 129.633053 309.539091 
L 133.577865 309.539091 
L 137.522677 309.539091 
L 141.467489 309.539091 
L 145.4123 309.539091 
L 149.357112 309.539091 
L 153.301924 309.539091 
L 157.246736 309.539091 
L 161.191547 309.539091 
L 165.136359 309.539091 
L 169.081171 309.539091 
L 173.025983 309.539091 
L 176.970794 309.539091 
L 180.915606 309.539091 
L 184.860418 309.539091 
L 188.80523 309.539091 
L 192.750041 309.539091 
L 196.694853 309.539091 
L 200.639665 309.539091 
L 204.584477 309.539091 
L 208.529288 309.539091 
L 212.4741 309.539091 
L 216.418912 309.539091 
L 220.363724 309.539091 
L 224.308535 309.539091 
L 228.253347 309.539091 
L 232.198159 309.539091 
L 236.142971 309.539091 
L 240.087782 309.539091 
L 244.032594 309.539091 
L 247.977406 309.539091 
L 251.922218 309.539091 
L 255.867029 309.539091 
L 259.811841 309.539091 
L 263.756653 309.539091 
L 267.701465 309.539091 
L 271.646276 309.539091 
L 275.591088 309.539091 
L 279.5359 309.539091 
L 283.480712 309.539091 
L 287.425523 309.539091 
L 291.370335 309.539091 
L 295.315147 309.539091 
L 299.259959 309.539091 
L 303.20477 309.539091 
L 307.149582 309.539091 
L 311.094394 309.539091 
L 315.039206 309.539091 
L 318.984017 309.539091 
L 322.928829 309.539091 
L 326.873641 309.539091 
L 330.818453 309.539091 
L 334.763264 309.539091 
L 338.708076 309.539091 
L 342.652888 309.539091 
L 346.5977 309.539091 
L 350.542511 309.539091 
L 354.487323 309.539091 
L 358.432135 309.539091 
L 362.376947 309.539091 
L 366.321758 309.539091 
L 370.26657 309.539091 
L 374.211382 309.539091 
L 378.156194 309.539091 
L 382.101006 309.539091 
L 386.045817 309.539091 
L 389.990629 309.539091 
L 393.935441 309.539091 
L 397.880253 309.539091 
L 401.825064 309.539091 
L 405.769876 309.539091 
L 409.714688 309.539091 
L 413.6595 309.539091 
L 417.604311 309.539091 
L 421.549123 309.539091 
L 425.493935 309.539091 
L 429.438747 309.539091 
L 433.383558 309.539091 
L 437.32837 309.539091 
L 441.273182 309.539091 
" clip-path="url(#p270a59a0fb)" style="fill: none; stroke: #ff0000; stroke-width: 1.5; stroke-linecap: square"/>
   </g>
   <g id="patch_24">
    <path d="M 31.21 314.44 
L 31.21 206.62 
" style="fill: none; stroke: #000000; stroke-width: 0.8; stroke-linejoin: miter; stroke-linecap: square"/>
   </g>
   <g id="patch_25">
    <path d="M 460.8 314.44 
L 460.8 206.62 
" style="fill: none; stroke: #000000; stroke-width: 0.8; stroke-linejoin: miter; stroke-linecap: square"/>
   </g>
   <g id="patch_26">
    <path d="M 31.21 314.44 
L 460.8 314.44 
" style="fill: none; stroke: #000000; stroke-width: 0.8; stroke-linejoin: miter; stroke-linecap: square"/>
   </g>
   <g id="patch_27">
    <path d="M 31.21 206.62 
L 460.8 206.62 
" style="fill: none; stroke: #000000; stroke-width: 0.8; stroke-linejoin: miter; stroke-linecap: square"/>
   </g>
   <g id="text_33">
    <!-- 4-bits words Autocorrelation -->
    <g transform="translate(161.25875 200.62) scale(0.12 -0.12)">
     <defs>
      <path id="DejaVuSans-41" d="M 2188 4044 
L 1331 1722 
L 3047 1722 
L 2188 4044 
z
M 1831 4666 
L 2547 4666 
L 4325 0 
L 3669 0 
L 3244 1197 
L 1141 1197 
L 716 0 
L 50 0 
L 1831 4666 
z
" transform="scale(0.015625)"/>
      <path id="DejaVuSans-63" d="M 3122 3366 
L 3122 2828 
Q 2878 2963 2633 3030 
Q 2388 3097 2138 3097 
Q 1578 3097 1268 2742 
Q 959 2388 959 1747 
Q 959 1106 1268 751 
Q 1578 397 2138 397 
Q 2388 397 2633 464 
Q 2878 531 3122 666 
L 3122 134 
Q 2881 22 2623 -34 
Q 2366 -91 2075 -91 
Q 1284 -91 818 406 
Q 353 903 353 1747 
Q 353 2603 823 3093 
Q 1294 3584 2113 3584 
Q 2378 3584 2631 3529 
Q 2884 3475 3122 3366 
z
" transform="scale(0.015625)"/>
     </defs>
     <use xlink:href="#DejaVuSans-34"/>
     <use xlink:href="#DejaVuSans-2d" x="63.623047"/>
     <use xlink:href="#DejaVuSans-62" x="99.707031"/>
     <use xlink:href="#DejaVuSans-69" x="163.183594"/>
     <use xlink:href="#DejaVuSans-74" x="190.966797"/>
     <use xlink:href="#DejaVuSans-73" x="230.175781"/>
     <use xlink:href="#DejaVuSans-20" x="282.275391"/>
     <use xlink:href="#DejaVuSans-77" x="314.0625"/>
     <use xlink:href="#DejaVuSans-6f" x="395.849609"/>
     <use xlink:href="#DejaVuSans-72" x="457.03125"/>
     <use xlink:href="#DejaVuSans-64" x="496.394531"/>
     <use xlink:href="#DejaVuSans-73" x="559.871094"/>
     <use xlink:href="#DejaVuSans-20" x="611.970703"/>
     <use xlink:href="#DejaVuSans-41" x="643.757812"/>
     <use xlink:href="#DejaVuSans-75" x="712.166016"/>
     <use xlink:href="#DejaVuSans-74" x="775.544922"/>
     <use xlink:href="#DejaVuSans-6f" x="814.753906"/>
     <use xlink:href="#DejaVuSans-63" x="875.935547"/>
     <use xlink:href="#DejaVuSans-6f" x="930.916016"/>
     <use xlink:href="#DejaVuSans-72" x="992.097656"/>
     <use xlink:href="#DejaVuSans-72" x="1031.460938"/>
     <use xlink:href="#DejaVuSans-65" x="1070.324219"/>
     <use xlink:href="#DejaVuSans-6c" x="1131.847656"/>
     <use xlink:href="#DejaVuSans-61" x="1159.630859"/>
     <use xlink:href="#DejaVuSans-74" x="1220.910156"/>
     <use xlink:href="#DejaVuSans-69" x="1260.119141"/>
     <use xlink:href="#DejaVuSans-6f" x="1287.902344"/>
     <use xlink:href="#DejaVuSans-6e" x="1349.083984"/>
    </g>
   </g>
  </g>
 </g>
 <defs>
  <clipPath id="p79ffed5b3b">
   <rect x="31.21" y="16.08" width="429.59" height="107.82"/>
  </clipPath>
  <clipPath id="p270a59a0fb">
   <rect x="31.21" y="206.62" width="429.59" height="107.82"/>
  </clipPath>
 </defs>
</svg>
